<svg xmlns="http://www.w3.org/2000/svg" xmlns:xlink="http://www.w3.org/1999/xlink" viewBox="0 0 1200 1200">
  <defs>
    <linearGradient id="a" data-name="名称未設定グラデーション 47" x1="217.28" y1="489.83" x2="994.88" y2="653.53" gradientUnits="userSpaceOnUse">
      <stop offset="0" stop-color="#020202"/>
      <stop offset="0.06" stop-color="#070707"/>
      <stop offset="0.13" stop-color="#151515"/>
      <stop offset="0.2" stop-color="#2c2c2c"/>
      <stop offset="0.27" stop-color="#4d4d4d"/>
      <stop offset="0.35" stop-color="#787878"/>
      <stop offset="0.43" stop-color="#ababab"/>
      <stop offset="0.51" stop-color="#e7e7e7"/>
      <stop offset="0.54" stop-color="#fff"/>
      <stop offset="0.66" stop-color="#fff"/>
      <stop offset="0.69" stop-color="#e5e5e5"/>
      <stop offset="0.74" stop-color="#bababa"/>
      <stop offset="0.79" stop-color="#969696"/>
      <stop offset="0.84" stop-color="#7b7b7b"/>
      <stop offset="0.89" stop-color="#676767"/>
      <stop offset="0.95" stop-color="#5b5b5b"/>
      <stop offset="1" stop-color="#575757"/>
    </linearGradient>
    <clipPath id="b">
      <polygon points="175 237 142.18 286.5 873 870 916.08 800.88 175 237" style="fill: none"/>
    </clipPath>
    <linearGradient id="c" data-name="ホワイト、ブラック" x1="751.33" y1="619.33" x2="429.98" y2="537.47" gradientUnits="userSpaceOnUse">
      <stop offset="0" stop-color="#fff"/>
      <stop offset="1"/>
    </linearGradient>
  </defs>
  <title>ポッピンパンク</title>
  <g style="isolation: isolate">
    <g>
      <path d="M1104,283.8C1104,856.29,878.35,1013,600,1013S96,842.75,96,283.8c0-66.44,17.7-78.41,73.26-81.33,328.85-17.31,535.37-23.11,859.94-1.49C1085.6,204.74,1104,216.62,1104,283.8Z" style="fill: #302833;stroke: #111;stroke-miterlimit: 10;stroke-width: 10px"/>
      <g>
        <path d="M1025.89,330.8C1025.89,814.57,835.21,947,600,947S192.49,812.64,167,341c-2-37-46.1-52.76-53-60-23.21-24.36,20.8-78,55-70,6.49,1.52,31,48,70,45,277.45-21.34,449.41-13.46,723.69,4.82C1010.34,264,1025.89,274,1025.89,330.8Z" style="fill: #d40725;stroke: #111;stroke-miterlimit: 10;stroke-width: 12px"/>
        <path d="M1025.89,330.8C1025.89,814.57,835.21,947,600,947S192.49,812.64,167,341c-2-37-46.1-52.76-53-60-23.21-24.36,20.8-78,55-70,6.49,1.52,31,48,70,45,277.45-21.34,449.41-13.46,723.69,4.82C1010.34,264,1025.89,274,1025.89,330.8Z" style="opacity: 0.39;mix-blend-mode: hard-light;fill: url(#a)"/>
      </g>
      <g>
        <path d="M430.9,285.19l.13,4c17.64-.59,35.4-1.06,52.77-1.39l-.08-4C466.33,284.13,448.56,284.6,430.9,285.19Z" style="fill: #111"/>
        <path d="M536.56,283.21l0,4q6.69,0,13.4,0c13,0,26.29.07,39.37.21l0-4c-13.09-.14-26.35-.21-39.41-.21Q543.28,283.18,536.56,283.21Z" style="fill: #111"/>
        <path d="M241.91,295.89a86.92,86.92,0,0,1-21.46-1l-.69,3.94a90.45,90.45,0,0,0,15.63,1.35c2.26,0,4.56-.09,6.83-.26,10.26-.79,20.58-1.56,30.67-2.27l-.28-4C262.51,294.33,252.18,295.1,241.91,295.89Z" style="fill: #111"/>
        <path d="M695,286c-18-.66-35.73-1.21-52.8-1.63l-.1,4c17.06.42,34.81,1,52.75,1.63Z" style="fill: #111"/>
        <path d="M800.51,290.86c-18.34-1-36.09-1.91-52.75-2.69l-.19,4c16.66.78,34.39,1.68,52.72,2.68Z" style="fill: #111"/>
        <path d="M325.33,290.16l.24,4c17.77-1.06,35.51-2,52.71-2.83l-.19-4C360.87,288.14,343.12,289.09,325.33,290.16Z" style="fill: #111"/>
        <path d="M853,297.89c16.51,1,33.75,2.07,52.69,3.28l.25-4c-18.94-1.21-36.18-2.29-52.7-3.28Z" style="fill: #111"/>
        <path d="M981.76,307.64c.77,2.81,2,9.47,2.13,23.23l4,0c-.12-15.64-1.69-22.64-2.62-25.42l-.31-.93-.92-.32c-3-1-9.5-2.48-23.88-3.44l-1.37-.09-.26,4,1.37.09C972.83,305.58,979,306.82,981.76,307.64Z" style="fill: #111"/>
        <path d="M785.21,865.31l1.93,3.51a286.82,286.82,0,0,0,41.69-28l-2.51-3.11A282.3,282.3,0,0,1,785.21,865.31Z" style="fill: #111"/>
        <path d="M210.35,413.93c1.61,16.92,3.48,33.64,5.55,49.7l4-.51c-2.06-16-3.92-32.69-5.53-49.57Z" style="fill: #111"/>
        <path d="M981,430.56l4,.25c1-16.21,1.78-33,2.27-50l-4-.11C982.73,397.64,982,414.4,981,430.56Z" style="fill: #111"/>
        <path d="M248.34,609.8l-3.86,1.06c1.39,5,2.83,10.09,4.29,15,3.32,11.21,6.89,22.26,10.6,32.82l3.77-1.33c-3.68-10.5-7.23-21.48-10.54-32.63C251.16,619.84,249.72,614.83,248.34,609.8Z" style="fill: #111"/>
        <path d="M970.72,529.72l4,.58c2.37-16,4.46-32.67,6.19-49.64l-4-.41C975.16,497.17,973.09,513.81,970.72,529.72Z" style="fill: #111"/>
        <path d="M951.86,622.29c-.45,1.65-.89,3.3-1.35,4.93l3.86,1.07,1.35-5c3.74-14,7.2-28.66,10.29-43.74l-3.92-.8C959,593.79,955.57,608.42,951.86,622.29Z" style="fill: #111"/>
        <path d="M203.33,314l-3.74,1.43A84.1,84.1,0,0,1,204.94,341c.42,7.76.89,15.54,1.4,23.15l4-.27c-.51-7.58-1-15.36-1.39-23.1A88.31,88.31,0,0,0,203.33,314Z" style="fill: #111"/>
        <path d="M223.22,513.11c2.84,16.87,6,33.4,9.39,49.13l3.91-.84c-3.38-15.68-6.53-32.15-9.36-49Z" style="fill: #111"/>
        <path d="M277.86,705.22a483.77,483.77,0,0,0,22.79,44.65l3.46-2a479.31,479.31,0,0,1-22.6-44.27Z" style="fill: #111"/>
        <path d="M600,907q-3.43,0-6.81,0l-.05,4q3.4,0,6.86,0c14.83,0,29.36-.57,43.21-1.7l-.32-4C629.15,906.38,614.72,907,600,907Z" style="fill: #111"/>
        <path d="M868.73,795.59c-2.19,2.65-4.44,5.29-6.68,7.84l3,2.65c2.28-2.58,4.55-5.26,6.77-8A343.41,343.41,0,0,0,895.23,766l-3.37-2.17A336.77,336.77,0,0,1,868.73,795.59Z" style="fill: #111"/>
        <path d="M692.1,898.49l.78,3.92a356.72,356.72,0,0,0,48.41-13.16L740,885.47A353,353,0,0,1,692.1,898.49Z" style="fill: #111"/>
        <path d="M493.72,899.13a386.46,386.46,0,0,0,49.39,8.77l.45-4a384.06,384.06,0,0,1-48.88-8.67Z" style="fill: #111"/>
        <path d="M337.37,796.25c-1.9-2.32-3.81-4.72-5.67-7.13l-3.16,2.45c1.88,2.43,3.81,4.86,5.73,7.22a317.73,317.73,0,0,0,27.93,30l2.74-2.92A311,311,0,0,1,337.37,796.25Z" style="fill: #111"/>
        <path d="M916.08,720.45l3.6,1.74c7-14.48,13.55-30,19.47-46.18l-3.76-1.38C929.52,690.67,923,706.08,916.08,720.45Z" style="fill: #111"/>
        <path d="M401.66,859.86a285.22,285.22,0,0,0,44.4,23.49l1.55-3.68a281.91,281.91,0,0,1-43.77-23.16Z" style="fill: #111"/>
      </g>
      <g>
        <polygon points="745 422 537 847 692 742 889 397 745 422" style="fill: #533cfe;stroke: #111;stroke-miterlimit: 10;stroke-width: 8px"/>
        <polygon points="537 339 329 764 484 659 681 314 537 339" style="fill: #533cfe;stroke: #111;stroke-miterlimit: 10;stroke-width: 8px"/>
      </g>
      <path d="M145,206a45,45,0,1,0,45,45A45,45,0,0,0,145,206Zm0,63a18,18,0,1,1,18-18A18,18,0,0,1,145,269Z" style="fill: #dedede;stroke: #111;stroke-miterlimit: 10;stroke-width: 8px"/>
      <path d="M900,812a45,45,0,1,0,45,45A45,45,0,0,0,900,812Zm0,63a18,18,0,1,1,18-18A18,18,0,0,1,900,875Z" style="fill: #dedede;stroke: #111;stroke-miterlimit: 10;stroke-width: 8px"/>
      <g style="clip-path: url(#b)">
        <g>
          <rect x="521.04" y="-194.93" width="19.21" height="1508.27" transform="translate(-237.74 621.57) rotate(-51.14)" style="fill: #fff;stroke: #000;stroke-miterlimit: 10;stroke-width: 5px"/>
          <polygon points="-50.57 78.58 -62.63 93.54 52.12 185.99 38.26 150.16 -50.57 78.58" style="fill: #111"/>
          <polygon points="145.94 236.91 159.79 272.75 187.21 294.83 173.35 259 145.94 236.91" style="fill: #111"/>
          <polygon points="686.28 672.27 700.14 708.11 727.55 730.2 713.7 694.36 686.28 672.27" style="fill: #111"/>
          <polygon points="1001.48 926.23 1015.34 962.07 1042.75 984.16 1028.9 948.32 1001.48 926.23" style="fill: #111"/>
          <polygon points="55.88 164.35 69.74 200.19 97.15 222.27 83.29 186.44 55.88 164.35" style="fill: #111"/>
          <polygon points="100.91 200.63 114.77 236.47 142.18 258.55 128.32 222.72 100.91 200.63" style="fill: #111"/>
          <polygon points="1123.91 1024.87 1046.51 962.51 1060.37 998.35 1111.86 1039.83 1123.91 1024.87" style="fill: #111"/>
          <polygon points="506.17 527.15 520.02 562.99 547.44 585.08 533.58 549.24 506.17 527.15" style="fill: #111"/>
          <polygon points="596.22 599.71 610.08 635.55 637.5 657.63 623.64 621.8 596.22 599.71" style="fill: #111"/>
          <polygon points="866.4 817.39 880.25 853.23 907.67 875.32 893.81 839.48 866.4 817.39" style="fill: #111"/>
          <polygon points="911.42 853.67 925.28 889.51 952.7 911.6 938.84 875.76 911.42 853.67" style="fill: #111"/>
          <polygon points="731.31 708.55 745.17 744.39 772.58 766.48 758.72 730.64 731.31 708.55" style="fill: #111"/>
          <polygon points="641.25 635.99 655.11 671.83 682.52 693.91 668.67 658.08 641.25 635.99" style="fill: #111"/>
          <polygon points="956.45 889.95 970.31 925.79 997.73 947.88 983.87 912.04 956.45 889.95" style="fill: #111"/>
          <polygon points="326.05 382.03 339.91 417.87 367.32 439.95 353.46 404.12 326.05 382.03" style="fill: #111"/>
          <polygon points="281.02 345.75 294.88 381.59 322.29 403.67 308.44 367.84 281.02 345.75" style="fill: #111"/>
          <polygon points="416.11 454.59 429.97 490.43 457.38 512.51 443.52 476.68 416.11 454.59" style="fill: #111"/>
          <polygon points="235.99 309.47 249.85 345.31 277.27 367.39 263.41 331.56 235.99 309.47" style="fill: #111"/>
          <polygon points="371.08 418.31 384.94 454.15 412.35 476.23 398.49 440.4 371.08 418.31" style="fill: #111"/>
          <polygon points="551.2 563.43 565.05 599.27 592.47 621.36 578.61 585.52 551.2 563.43" style="fill: #111"/>
          <polygon points="461.14 490.87 475 526.71 502.41 548.79 488.55 512.96 461.14 490.87" style="fill: #111"/>
          <polygon points="190.97 273.19 204.82 309.02 232.24 331.11 218.38 295.28 190.97 273.19" style="fill: #111"/>
          <polygon points="776.34 744.83 790.2 780.67 817.61 802.76 803.75 766.92 776.34 744.83" style="fill: #111"/>
          <polygon points="821.37 781.11 835.23 816.95 862.64 839.04 848.78 803.2 821.37 781.11" style="fill: #111"/>
        </g>
      </g>
      <g>
        <path d="M721.83,720.49S721.91,584.8,671,474c-17-37-73-91-134-56-37.12,21.3-42,68-28,125-45-1-96.45-4.12-116,41-26,60,15,114,81.37,135.2C567.8,749.05,721.83,720.49,721.83,720.49Z" style="fill: #f948d1;stroke: #111;stroke-miterlimit: 10;stroke-width: 8px"/>
        <path d="M721.83,720.49S721.91,584.8,671,474c-17-37-73-91-134-56-37.12,21.3-42,68-28,125-45-1-96.45-4.12-116,41-26,60,15,114,81.37,135.2C567.8,749.05,721.83,720.49,721.83,720.49Z" style="stroke: #111;stroke-miterlimit: 10;stroke-width: 8px;opacity: 0.47000000000000003;mix-blend-mode: screen;fill: url(#c)"/>
      </g>
    </g>
  </g>
</svg>
