<svg xmlns="http://www.w3.org/2000/svg" xmlns:xlink="http://www.w3.org/1999/xlink" viewBox="0 0 1200 1200">
  <defs>
    <linearGradient id="a" data-name="名称未設定グラデーション 10" x1="548.38" y1="800.02" x2="390.74" y2="954.63" gradientUnits="userSpaceOnUse">
      <stop offset="0" stop-color="#020202"/>
      <stop offset="0.39" stop-color="#696969"/>
      <stop offset="0.81" stop-color="#d4d4d4"/>
      <stop offset="1" stop-color="#fff"/>
    </linearGradient>
    <radialGradient id="b" data-name="名称未設定グラデーション 8" cx="93.73" cy="735.23" r="134" gradientTransform="matrix(0.12, 0.99, 1.67, -0.21, -478.37, 792.97)" xlink:href="#a"/>
    <radialGradient id="c" data-name="名称未設定グラデーション 8" cx="434.73" cy="735.23" r="134" gradientTransform="translate(1718.26 454.5) rotate(96.98) scale(1 1.69)" xlink:href="#a"/>
  </defs>
  <title>無印+</title>
  <g style="isolation: isolate">
    <g>
      <path d="M1104,234.49c0,661.77-225.65,842.87-504,842.87S96,880.61,96,234.49c0-76.8,17.7-90.63,73.26-94,328.85-20,535.37-26.72,859.94-1.72C1085.6,143.1,1104,156.83,1104,234.49Z" style="fill: #e575b3;stroke: #c93387;stroke-miterlimit: 10;stroke-width: 12px"/>
      <path d="M578,800c-40.65,72-87.95,139.21-144,200l-30-53H309c57-49,119.74-92.8,199-133Z" style="fill: #be220f;stroke: #661c3e;stroke-miterlimit: 10;stroke-width: 6px"/>
      <path d="M578,800c-40.65,72-87.95,139.21-144,200l-30-53H309c57-49,119.74-92.8,199-133Z" style="opacity: 0.64;mix-blend-mode: multiply;fill: url(#a)"/>
      <g>
        <path d="M611.55,711.14ZM599.87,702C556.64,667.56,406.08,540.55,363.1,411.59c-22.25-66.75-18.5-130.25,10-169.85,16-22.23,38.77-34.47,64.06-34.47,32.59,0,61.33,12.45,87.86,38.08,24.08,23.26,43.19,54.22,60.25,84.2a20,20,0,0,0,17,10.1h.38a20,20,0,0,0,17-9.45c3-4.81,5.95-9.69,8.94-14.57,15.94-26.13,32.42-53.14,52.5-72.47,21.13-20.34,43.72-29.81,71.11-29.81,1.58,0,3.2,0,4.81.1,26.65,1,47,11.85,62.17,33,27.41,38.19,31,104.3,18.73,146.14-27.09,92-93.2,173.34-143.9,225.38A904.46,904.46,0,0,1,599.87,702Z" style="fill: #e575b3"/>
        <path d="M437.21,227.27c27.53,0,51,10.31,74,32.47,22.27,21.51,40.45,51,56.77,79.7a40,40,0,0,0,34,20.21h.77a40,40,0,0,0,34-18.91c3-4.89,6.08-9.88,9-14.7,16-26.19,31.08-50.93,49.3-68.47,17.4-16.75,35-24.22,57.24-24.22,1.32,0,2.67,0,4,.08,20.36.81,35.2,8.65,46.71,24.7,10.86,15.13,18.24,37.44,20.77,62.82,2.29,23,.43,47.64-5,66-11.27,38.28-30.66,78-57.65,118.11-22.13,32.88-49.32,66-80.84,98.4a897.8,897.8,0,0,1-80.23,73c-19.6-16.15-49.35-41.88-80.89-73.63C449,532.22,401.61,463.9,382.07,405.27c-10.77-32.3-15.17-64.15-12.72-92.08,2.08-23.81,9-44.47,20-59.76,8.61-11.94,23.89-26.16,47.84-26.16m0-40c-81.71,0-136.9,99.2-93.09,230.65C396.87,576.17,599.6,727.18,599.6,727.18S802.33,584.44,857.15,398.27c19.89-67.56,5.17-200.66-99.3-204.8-1.89-.07-3.76-.11-5.6-.11-78.85,0-113.16,67.68-149.55,126.3-34.13-60-80.67-132.39-165.49-132.39Z" style="fill: #ba001f"/>
        <path d="M599.6,727.18S802.33,584.44,857.15,398.27c19.89-67.56,5.17-200.66-99.3-204.8C675,190.19,639.94,259.67,602.7,319.66c-34.13-60-80.67-132.39-165.49-132.39-81.71,0-136.9,99.2-93.09,230.65C396.87,576.17,599.6,727.18,599.6,727.18Z" style="fill: none;stroke: #661c3e;stroke-miterlimit: 10;stroke-width: 6px"/>
      </g>
      <g>
        <path d="M259.53,247.07s46.5,8.29,79-9.25c11.81-6.37,27.85-26.21,14.4-40.9-10.66-11.65-34,.49-47.11,3.5,3.54-12.67,16.33-36.25,5-47.72-11-11.06-31.78-5.23-43.7,18.33C252.78,199.38,259.53,247.07,259.53,247.07Z" style="fill: #ba001f"/>
        <path d="M304,208c-9.58,6.93-127.58,78.94-110,268,9.44,101.51,66.08,170.12,90,196" style="fill: none;stroke: #ba001f;stroke-miterlimit: 10;stroke-width: 10px"/>
        <path d="M212.18,331s56.7-3.87,81.82-31c9.11-9.85,15.48-30.45-2-40-13.86-7.57-39.65,4.78-51.08,11.87-.75-13.13,2.55-42.69-11.92-49.87-13.94-6.92-38.35,8.86-42,35C182.6,288.47,212.18,331,212.18,331Z" style="fill: #ba001f"/>
        <path d="M193.24,428.83S245.48,409.08,262,376c6-12,6.45-33.72-13-38-15.43-3.39-39,15-48,25-4.39-12.39-13.09-34.16-29-37-15.32-2.74-28.81,12.88-25,39C151.59,396.45,193.24,428.83,193.24,428.83Z" style="fill: #ba001f"/>
        <path d="M201.12,527.25S248.42,491.38,255,455c2.39-13.2,1.87-33.35-18-32-15.76,1.07-37.63,26.82-43.46,38.94C185.85,451.27,165.06,427.27,149,429c-15.48,1.67-22,22-11,46C151.22,503.9,201.12,527.25,201.12,527.25Z" style="fill: #ba001f"/>
        <path d="M241.27,610s34.59-36.34,29.73-73c-1.76-13.3-5.49-32.36-24-25-14.68,5.84-29.16,35.68-31,49-10.58-7.8-36.23-33.56-51-27-14.23,6.32-14.8,29.51,3,49C189.43,606.47,241.27,610,241.27,610Z" style="fill: #ba001f"/>
        <path d="M292.24,696S334,638.87,325,603c-3.25-13-14.44-28.4-32-19-13.92,7.46-34.2,42.18-34.52,55.62-11.4-6.56-49.55-18.8-63.48-10.62-13.42,7.88-2.88,25.64,17,43C235.94,692.9,292.24,696,292.24,696Z" style="fill: #ba001f"/>
      </g>
      <g>
        <path d="M933.08,247.07s-46.5,8.29-79.05-9.25c-11.81-6.37-27.84-26.21-14.4-40.9,10.67-11.65,34,.49,47.12,3.5-3.54-12.67-16.33-36.25-5-47.72,11-11.06,31.78-5.23,43.69,18.33C939.83,199.38,933.08,247.07,933.08,247.07Z" style="fill: #ba001f"/>
        <path d="M888.61,208c9.58,6.93,127.58,78.94,110,268-9.44,101.51-66.09,170.12-90,196" style="fill: none;stroke: #ba001f;stroke-miterlimit: 10;stroke-width: 10px"/>
        <path d="M980.43,331s-56.71-3.87-81.82-31c-9.12-9.85-15.48-30.45,2-40,13.86-7.57,39.64,4.78,51.08,11.87.74-13.13-2.56-42.69,11.92-49.87,13.94-6.92,38.35,8.86,42,35C1010,288.47,980.43,331,980.43,331Z" style="fill: #ba001f"/>
        <path d="M999.36,428.83S947.13,409.08,930.61,376c-6-12-6.46-33.72,13-38,15.42-3.39,39,15,48,25,4.39-12.39,13.09-34.16,29-37,15.32-2.74,28.8,12.88,25,39C1041,396.45,999.36,428.83,999.36,428.83Z" style="fill: #ba001f"/>
        <path d="M991.49,527.25s-47.3-35.87-53.88-72.25c-2.39-13.2-1.87-33.35,18-32,15.75,1.07,37.63,26.82,43.45,38.94,7.69-10.67,28.48-34.67,44.55-32.94,15.47,1.67,22,22,11,46C1041.38,503.9,991.49,527.25,991.49,527.25Z" style="fill: #ba001f"/>
        <path d="M951.34,610s-34.59-36.34-29.73-73c1.76-13.3,5.49-32.36,24-25,14.67,5.84,29.16,35.68,31,49,10.58-7.8,36.23-33.56,51-27,14.22,6.32,14.79,29.51-3,49C1003.18,606.47,951.34,610,951.34,610Z" style="fill: #ba001f"/>
        <path d="M900.37,696s-41.73-57.17-32.76-93c3.25-13,14.44-28.4,32-19,13.92,7.46,34.19,42.18,34.52,55.62,11.4-6.56,49.54-18.8,63.48-10.62,13.42,7.88,2.88,25.64-17,43C956.67,692.9,900.37,696,900.37,696Z" style="fill: #ba001f"/>
      </g>
      <path d="M620.43,800c40.65,72,88,139.21,144,200l30-53h95c-57-49-119.74-92.8-199-133Z" style="fill: #be220f;stroke: #661c3e;stroke-miterlimit: 10;stroke-width: 6px"/>
      <path d="M622.43,801c15,41,70.4,69.59,150,69.59s130.37-12.87,143.76-69.42c15.63-66,15.75-140.17-4.17-152.47-35.42-21.88-168.92,13.71-199.54,23.3C613.43,703,597.5,732.85,622.43,801Z" style="fill: #be220f;stroke: #661c3e;stroke-miterlimit: 10;stroke-width: 6px"/>
      <path d="M621.89,801.5c20.54,54.5,65.66,85.89,145,85.89s146.7-28.07,142.4-85.89c-1.9-25.5-38.22-28.22-53.9-30.5-57.17-8.32-133.75,1.07-165.42,5.82C669.22,779.94,615.15,783.63,621.89,801.5Z" style="fill: #be220f;stroke: #661c3e;stroke-miterlimit: 10;stroke-width: 6px"/>
      <path d="M621.89,801.5c20.54,54.5,65.66,85.89,145,85.89s146.7-28.07,142.4-85.89c-1.9-25.5-38.22-28.22-53.9-30.5-57.17-8.32-133.75,1.07-165.42,5.82C669.22,779.94,615.15,783.63,621.89,801.5Z" style="opacity: 0.93;mix-blend-mode: multiply;fill: url(#b)"/>
      <path d="M576,801c-15,41-70.4,69.59-149.95,69.59s-130.37-12.87-143.76-69.42c-15.63-66-15.75-140.17,4.17-152.47C321.87,626.82,455.37,662.41,486,672,585,703,600.93,732.85,576,801Z" style="fill: #be220f;stroke: #661c3e;stroke-miterlimit: 10;stroke-width: 6px"/>
      <path d="M612,800H587a12,12,0,0,1-12-12l-5-67a12,12,0,0,1,12-12h37a12,12,0,0,1,12,12l-7,67A12,12,0,0,1,612,800Z" style="fill: #be220f;stroke: #661c3e;stroke-miterlimit: 10;stroke-width: 6px"/>
      <path d="M576.54,801.5c-20.54,54.5-65.66,85.89-145,85.89S284.8,859.32,289.1,801.5C291,776,327.32,773.28,343,771c57.17-8.32,133.75,1.07,165.42,5.82C529.21,779.94,583.28,783.63,576.54,801.5Z" style="fill: #be220f;stroke: #661c3e;stroke-miterlimit: 10;stroke-width: 6px"/>
      <path d="M576.54,801.5c-20.54,54.5-65.66,85.89-145,85.89S284.8,859.32,289.1,801.5C291,776,327.32,773.28,343,771c57.17-8.32,133.75,1.07,165.42,5.82C529.21,779.94,583.28,783.63,576.54,801.5Z" style="opacity: 0.93;mix-blend-mode: multiply;fill: url(#c)"/>
      <path d="M606.33,716H582.67a5.69,5.69,0,0,0-4.71,2.52,5.63,5.63,0,0,0-1.46,4.3l2.06,23.58a5.68,5.68,0,0,0,6.14,5.15l2.65-.23a5.68,5.68,0,0,0,5.15-6.14L591.18,730h15.15a5.68,5.68,0,0,0,5.67-5.67v-2.66A5.68,5.68,0,0,0,606.33,716Z" style="fill: #fff;opacity: 0.67;mix-blend-mode: screen"/>
      <g style="opacity: 0.67;mix-blend-mode: screen">
        <path d="M287,659c-14.81,30.52-9.32,69.12-2.8,102.41.59,3,1.23,6,2.87,8.6s4.51,4.56,7.54,4.29c4.35-.4,7-5.1,7.58-9.42.83-6.54-1.46-13-3.05-19.39-3-12.1-3.64-24.64-4.23-37.09-.27-5.58-.53-11.23.7-16.67A31.58,31.58,0,0,1,320,668.27c6.07-1.15,13.95-1.54,15.9-7.4,1.41-4.23-1.78-8.87-5.85-10.68s-8.72-1.51-13.16-1.18c-4.18.32-7.66.68-11.84,1-3.92.29-6.73-.19-10,2s-4,2-8,7" style="fill: #fff"/>
      </g>
    </g>
  </g>
</svg>
