<svg xmlns="http://www.w3.org/2000/svg" viewBox="0 0 1200 1200">
  <title>無印</title>
  <path d="M1104,234.49c0,661.77-225.65,842.87-504,842.87S96,880.61,96,234.49c0-76.8,17.7-90.63,73.26-94,328.85-20,535.37-26.72,859.94-1.72C1085.6,143.1,1104,156.83,1104,234.49Z" style="fill: #243543;stroke: #111;stroke-miterlimit: 10;stroke-width: 20px"/>
  <g>
    <path d="M682.7,929.46c-30.51-48.52-101-154.69-179.2-231.31-48.31-47.36-85.41-97.9-110.27-150.2-20.61-43.37-32.89-88-36.51-132.75-6.87-84.92,19.14-142.73,29.74-157.84,21.14-30.11,58-49.57,93.8-49.57,25.49,0,49.23,9.18,70.57,27.27,56,47.54,77.36,86.92,106.87,141.42,4.28,7.9,8.7,16.06,13.41,24.6l19.37,35.08,23-32.81c41-58.44,71.8-96,100-121.64,29.49-26.85,55.79-39.91,80.42-39.91a80.71,80.71,0,0,1,30.69,6.36c41.59,16.89,66.13,41.07,77.24,76.11,10.43,32.91,9.68,76.4-2.36,136.85-10.83,54.36-35.08,113.6-72.07,176.08-30,50.73-68.44,103.58-114.14,157.06A1578.59,1578.59,0,0,1,682.7,929.46Z" style="fill: #ff6fd2"/>
    <path d="M480.26,232.79c19.4,0,37.7,7.18,54.4,21.34,52.46,44.5,71.79,80.21,101.06,134.26,4.3,7.94,8.74,16.14,13.51,24.78L688,483.32l46-65.63c39.31-56.1,69.94-93.44,96.37-117.5,24.67-22.47,45.47-33.39,63.59-33.39a56.1,56.1,0,0,1,21.28,4.53c18.24,7.4,32.73,16.5,43.06,27.05A82,82,0,0,1,978,331.82c9,28.34,8,69-3,124.41-10.25,51.48-33.42,108-68.85,167.86-29.22,49.42-66.68,101-111.32,153.32A1559,1559,0,0,1,687.52,890.7C651.35,835.42,589.1,747.05,521,680.29,474.79,635,439.4,586.86,415.81,537.22c-19.3-40.62-30.8-82.35-34.17-124-3.32-41,2-73.94,7-94.37,6.26-25.49,14.46-41.6,18.32-47.1,16.59-23.65,45.38-38.93,73.33-38.93m0-50c-46.36,0-89.65,25.14-114.26,60.21-33.32,47.48-97.87,259.44,120,473,101,99,191,252,191,252s297-251,347-502c23.46-117.76,11-200-90-241a106.06,106.06,0,0,0-40.09-8.2C828.29,216.8,767.16,283.18,693,389c-37.87-68.6-58-115.32-126-173-27.56-23.38-57.75-33.21-86.74-33.21Z" style="fill: #a71331"/>
    <path d="M677,968s297-251,347-502c23.46-117.76,11-200-90-241-81.76-33.19-152,37-241,164-37.87-68.6-58-115.32-126-173-71.64-60.77-161-30-201,27-33.32,47.48-97.87,259.44,120,473C587,815,677,968,677,968Z" style="fill: none;stroke: #2b0c1a;stroke-miterlimit: 10;stroke-width: 14px"/>
  </g>
  <g>
    <path d="M408.66,915.86c-24-26.39-70.82-78.31-107.06-121.35-44.38-52.71-69.88-103.81-73.72-147.77-3.56-40.69,12.37-60.62,14.2-62.76,12.29-14.37,30.8-22.62,50.79-22.62A68.06,68.06,0,0,1,320.08,567c18.09,7.82,42,39.25,57.89,60,3.57,4.69,6.95,9.12,10.07,13.07l17.48,22.09,19.86-20c3.3-3.32,6.79-7,10.49-10.88,21.93-23.07,55.07-57.93,89-57.93a55.62,55.62,0,0,1,25.73,6.6c16.93,8.64,27.23,21.38,31.5,38.93,4.6,18.92,2.48,43.32-6.31,72.52C545,793.71,448.56,882.51,408.66,915.86Z" style="fill: #ff6fd2"/>
    <path d="M292.87,586.36a43.28,43.28,0,0,1,17.28,3.53c.26.11,6.29,2.82,19.11,16.72,10.05,10.9,20,24,28.82,35.54,3.65,4.79,7.09,9.31,10.36,13.44l35,44.17,39.7-40c3.5-3.51,7.09-7.29,10.88-11.28,11.74-12.35,25-26.34,39.39-36.77,12.21-8.88,22.79-13.38,31.45-13.38a31.42,31.42,0,0,1,14.36,3.86c10.61,5.42,16,12,18.58,22.58,2.43,10,3.37,28.41-6,59.4-14.72,48.94-49.18,103-99.64,156.47-14.92,15.78-29.26,29.41-41.39,40.29-25.33-28-61.12-68.18-90.06-102.55-51.86-61.6-65.57-106.79-67.94-133.85-2.67-30.56,8.19-44.2,8.3-44.33,7.42-8.68,19.31-13.87,31.79-13.87m0-50c-26.44,0-52.39,11-69.79,31.37-21.38,25-52,110.54,59.39,242.88C334.13,872,406,950,406,950S557.89,837.59,599.69,698.61c19.62-65.2,10.73-116.15-37.76-140.91a80.65,80.65,0,0,0-37.1-9.34c-51.06,0-92.56,51.41-117.19,76.19C389,601,358.69,556.41,330,544a93.56,93.56,0,0,0-37.13-7.64Z" style="fill: #a71331"/>
    <path d="M406,950S557.89,837.59,599.69,698.61c19.62-65.2,10.73-116.15-37.76-140.91C494,523,438,594,407.64,624.55,389,601,358.69,556.41,330,544c-37-16-81.26-6.28-106.92,23.73-21.38,25-52,110.54,59.39,242.88C334.13,872,406,950,406,950Z" style="fill: none;stroke: #2b0c1a;stroke-miterlimit: 10;stroke-width: 14px"/>
  </g>
</svg>
